<?xml version="1.0" encoding="UTF-8" standalone="no"?>
<!-- Uploaded to: SVG Repo, www.svgrepo.com, Generator: SVG Repo Mixer Tools -->

<svg
   width="512"
   height="512"
   viewBox="0 0 15.36 15.36"
   fill="none"
   version="1.1"
   id="svg1"
   sodipodi:docname="familyhub.svg"
   inkscape:version="1.4.3 (0d15f75042, 2025-12-25)"
   inkscape:export-filename="../assets/android-icon-monochrome.png"
   inkscape:export-xdpi="96"
   inkscape:export-ydpi="96"
   xmlns:inkscape="http://www.inkscape.org/namespaces/inkscape"
   xmlns:sodipodi="http://sodipodi.sourceforge.net/DTD/sodipodi-0.dtd"
   xmlns="http://www.w3.org/2000/svg"
   xmlns:svg="http://www.w3.org/2000/svg">
  <defs
     id="defs1">
    <linearGradient
       id="swatch3">
      <stop
         style="stop-color:#000000;stop-opacity:1;"
         offset="0"
         id="stop3" />
    </linearGradient>
  </defs>
  <sodipodi:namedview
     id="namedview1"
     pagecolor="#9d3510"
     bordercolor="#000000"
     borderopacity="0.25"
     inkscape:showpageshadow="2"
     inkscape:pageopacity="0.0"
     inkscape:pagecheckerboard="0"
     inkscape:deskcolor="#d1d1d1"
     inkscape:zoom="1.18875"
     inkscape:cx="435.75184"
     inkscape:cy="400"
     inkscape:window-width="2048"
     inkscape:window-height="1211"
     inkscape:window-x="0"
     inkscape:window-y="0"
     inkscape:window-maximized="1"
     inkscape:current-layer="layer2"
     inkscape:export-bgcolor="#ffffff00" />
  <g
     inkscape:groupmode="layer"
     id="layer1"
     inkscape:label="Layer 1"
     style="display:inline">
    <path
       d="m 5.1363483,8.0005599 c 0,1.1686447 0.9659433,1.791406 1.6730322,2.3488251 0.2495154,0.1967 0.4898339,0.381889 0.7301521,0.381889 0.2403185,0 0.4806368,-0.185189 0.7301596,-0.381889 C 8.9767814,9.7919659 9.9427167,9.1692046 9.9427167,8.0005599 9.9427167,6.8319058 8.620918,6.0031205 7.5395326,7.1266491 6.4581383,6.0031205 5.1363483,6.8319058 5.1363483,8.0005599 Z"
       fill="#1C274C"
       id="path1-2"
       style="fill:#8a8a8a;fill-opacity:1;stroke-width:0.240318" />
  </g>
  <g
     inkscape:groupmode="layer"
     id="layer2"
     inkscape:label="Layer 2"
     style="display:none">
    <text
       xml:space="preserve"
       style="font-size:3.28854px;line-height:0;writing-mode:lr-tb;direction:ltr;fill:#8a8a8a;fill-opacity:1;stroke:none;stroke-width:1.33169;stroke-linecap:round;stroke-linejoin:round;stroke-opacity:1"
       x="4.5362353"
       y="9.3699923"
       id="text4"><tspan
         sodipodi:role="line"
         id="tspan4"
         style="font-style:normal;font-variant:normal;font-weight:bold;font-stretch:normal;font-size:3.28854px;line-height:0;font-family:FreeMono;-inkscape-font-specification:'FreeMono Bold';fill:#8a8a8a;fill-opacity:1;stroke:none;stroke-width:1.33169;stroke-opacity:1"
         x="4.5362353"
         y="9.3699923">DEV</tspan></text>
  </g>
  <g
     inkscape:groupmode="layer"
     id="layer3"
     inkscape:label="Layer 3"
     style="display:inline">
    <path
       d="m 3.5388014,6.1391878 v 3.6185038 c 0,0.9466364 0,1.4199554 0.1842229,1.7814924 0.162047,0.318044 0.4206169,0.576591 0.7386546,0.738627 0.3615551,0.184234 0.834862,0.184234 1.7814759,0.184234 H 8.722145 c 0.946636,0 1.419898,0 1.781493,-0.184234 0.318043,-0.162036 0.576591,-0.420583 0.738627,-0.738627 0.184234,-0.361537 0.184234,-0.834856 0.184234,-1.7814924 V 4.4552678 3.447545 M 12.553313,7.391382 9.4922101,3.9906524 C 8.7960079,3.2172242 8.4479349,2.8305129 8.0379439,2.6877457 7.6779265,2.5623539 7.2860209,2.562382 6.9259476,2.6878302 6.5160128,2.8306538 6.1680019,3.2174214 5.4719295,3.990951 l -3.059942,3.400431"
       stroke="#000000"
       stroke-width="1.12681"
       stroke-linecap="round"
       stroke-linejoin="round"
       id="path1"
       style="fill:none;fill-opacity:1;stroke:#8a8a8a;stroke-opacity:1"
       sodipodi:nodetypes="csccssccscccccccc" />
  </g>
</svg>
