<?xml version="1.0" encoding="UTF-8" standalone="no"?>
<!-- Uploaded to: SVG Repo, www.svgrepo.com, Generator: SVG Repo Mixer Tools -->

<svg
   width="512"
   height="512"
   viewBox="0 0 15.36 15.36"
   fill="none"
   version="1.1"
   id="svg1"
   sodipodi:docname="familyhub_mono.svg"
   inkscape:version="1.4.3 (0d15f75042, 2025-12-25)"
   inkscape:export-filename="../assets/icon-dev.png"
   inkscape:export-xdpi="96"
   inkscape:export-ydpi="96"
   xmlns:inkscape="http://www.inkscape.org/namespaces/inkscape"
   xmlns:sodipodi="http://sodipodi.sourceforge.net/DTD/sodipodi-0.dtd"
   xmlns="http://www.w3.org/2000/svg"
   xmlns:svg="http://www.w3.org/2000/svg">
  <defs
     id="defs1">
    <linearGradient
       id="swatch3">
      <stop
         style="stop-color:#000000;stop-opacity:1;"
         offset="0"
         id="stop3" />
    </linearGradient>
  </defs>
  <sodipodi:namedview
     id="namedview1"
     pagecolor="#9d3510"
     bordercolor="#000000"
     borderopacity="0.25"
     inkscape:showpageshadow="2"
     inkscape:pageopacity="0.0"
     inkscape:pagecheckerboard="0"
     inkscape:deskcolor="#d1d1d1"
     inkscape:zoom="1.18875"
     inkscape:cx="435.33123"
     inkscape:cy="233.43849"
     inkscape:window-width="2048"
     inkscape:window-height="1211"
     inkscape:window-x="0"
     inkscape:window-y="0"
     inkscape:window-maximized="1"
     inkscape:current-layer="layer2"
     inkscape:export-bgcolor="#9d3510ff" />
  <g
     inkscape:groupmode="layer"
     id="layer1"
     inkscape:label="Layer 1"
     style="display:inline">
    <path
       d="m 4.7487052,6.6725875 v 2.4109848 c 0,0.6307376 0,0.9461067 0.1227464,1.1869957 0.1079709,0.211912 0.2802543,0.38418 0.4921607,0.492143 0.2409017,0.122753 0.5562629,0.122753 1.1869855,0.122753 h 1.6517345 c 0.6307372,0 0.9460685,0 1.1869968,-0.122753 0.21191,-0.107963 0.3841785,-0.280231 0.4921421,-0.492143 C 10.004225,10.029679 10.004225,9.7143099 10.004225,9.0835723 V 5.550603 4.879164 M 10.755014,7.5069161 8.7154215,5.2410328 C 8.2515466,4.7257028 8.019628,4.4680397 7.7464537,4.3729148 7.5065766,4.2893672 7.2454524,4.2893859 7.005538,4.3729711 6.7324012,4.4681335 6.5005239,4.7258342 6.0367355,5.2412318 L 3.9979167,7.5069161"
       stroke="#000000"
       stroke-width="0.750786"
       stroke-linecap="round"
       stroke-linejoin="round"
       id="path1-6"
       style="display:inline;fill:none;fill-opacity:1;stroke:#ffffff;stroke-opacity:1"
       sodipodi:nodetypes="csccssccscccccccc" />
  </g>
  <g
     inkscape:groupmode="layer"
     id="layer2"
     inkscape:label="Layer 2"
     style="display:inline">
    <path
       d="m 5.81314,7.9128073 c 0,0.7786601 0.6436015,1.1936018 1.1147302,1.5650064 0.1662504,0.1310599 0.3263729,0.2544496 0.4864954,0.2544496 0.1601226,0 0.320245,-0.1233897 0.4865005,-0.2544496 C 8.3719948,9.1064091 9.015591,8.6914674 9.015591,7.9128073 9.015591,7.1341409 8.1348854,6.5819268 7.4143656,7.3305264 6.6938398,6.5819268 5.81314,7.1341409 5.81314,7.9128073 Z"
       fill="#1C274C"
       id="path1-2-3"
       style="display:inline;fill:#ffffff;fill-opacity:1;stroke-width:0.160122" />
  </g>
  <g
     inkscape:groupmode="layer"
     id="layer3"
     inkscape:label="Layer 3"
     style="display:inline">
    <text
       xml:space="preserve"
       style="font-size:2.19113px;line-height:0;writing-mode:lr-tb;direction:ltr;display:inline;fill:#ffffff;fill-opacity:1;stroke:none;stroke-width:0.887296;stroke-linecap:round;stroke-linejoin:round;stroke-opacity:1"
       x="5.4132886"
       y="8.8252506"
       id="text4-0"><tspan
         sodipodi:role="line"
         id="tspan4-6"
         style="font-style:normal;font-variant:normal;font-weight:bold;font-stretch:normal;font-size:2.19113px;line-height:0;font-family:FreeMono;-inkscape-font-specification:'FreeMono Bold';fill:#ffffff;fill-opacity:1;stroke:none;stroke-width:0.887296;stroke-opacity:1"
         x="5.4132886"
         y="8.8252506">DEV</tspan></text>
  </g>
</svg>
